# xmcd
#
# Track frame offsets:
#	183
#	13600
#	27313
#	38005
#	48655
#	61538
#	73765
#	86278
#	102028
#	114005
#	127595
#	138733
#	149673
#	161845
#	172215
#	186443
#	199960
#	209788
#	221938
#	231993
#	242185
#	254423
#	265438
#	278453
#
# Disc length: 3827 seconds
#
# Revision: 0
# Processed by: cddbd v1.5.1PL2 Copyright (c) Steve Scherf et al.
# Submitted via: dBpowerAMP V4.0
#
DISCID=710ef118
DTITLE=Various Artist - Way After Midnight
DYEAR=1992
DGENRE=Blues
TTITLE0=Billy 'Red' Love - Early In The Morning
TTITLE1=Billy 'Red' Love - There's No Use
TTITLE2=Billy 'Red' Love - If You Want To Make Me Happy
TTITLE3=Billy 'Red' Love - You Could Have Loved Me
TTITLE4=Billy 'Red' Love - Gee I Wish
TTITLE5=Billy 'Red' Love - Hey Now
TTITLE6=Billy 'Red' Love - Way After Midnight
TTITLE7=Billy 'Red' Love - Blues Leave Me Alone
TTITLE8=Billy 'Red' Love - Hart's Bread Boogie
TTITLE9=Raymond Hill - Somebody's Carryin' My Rollin' On
TTITLE10=Raymond Hill - My Baby Left Me
TTITLE11=Raymond Hill - Sittin' On Top Of The World
TTITLE12=Raymond Hill - I'm Back Pretty Baby
TTITLE13=Houston Stokes - We're All Gonna Do Some Wrong
TTITLE14=Houston Stokes - 4 O'Clock Blues
TTITLE15=Houston Stokes - Best Friend Blues
TTITLE16=Houston Stokes - Baby's Gone And Left Me
TTITLE17=Houston Stokes - Going Crazy
TTITLE18=Houston Stokes - The Hammer (instr.)
TTITLE19=Billy 'The Kid' Emerson - Satisfied
TTITLE20=Billy 'The Kid' Emerson - When My Baby Quit Me -2
TTITLE21=Billy 'The Kid' Emerson - Shim Sham Shimmy
TTITLE22=Billy 'The Kid' Emerson - No Greater Love
TTITLE23=Billy 'The Kid' Emerson - Red Hot
EXTD=(c) Charly Records Ldt., CD SUN 38
EXTT0=
EXTT1=
EXTT2=
EXTT3=
EXTT4=
EXTT5=
EXTT6=
EXTT7=
EXTT8=
EXTT9=
EXTT10=
EXTT11=
EXTT12=
EXTT13=
EXTT14=
EXTT15=
EXTT16=
EXTT17=
EXTT18=
EXTT19=
EXTT20=
EXTT21=
EXTT22=
EXTT23=
PLAYORDER=
